<svg width="22" height="30" viewBox="0 0 22 30" fill="none" xmlns="http://www.w3.org/2000/svg">
<g id="Group 212838">
<g id="Vector">
<path d="M18.1511 11.607H6.38371V7.04678C6.38371 4.76137 8.36314 2.90174 10.7965 2.90174C13.2298 2.90174 15.2093 4.76137 15.2093 7.04678V7.25435H18.1511V7.04678C18.1511 3.16103 14.8516 0 10.7965 0C6.74139 0 3.44186 3.16103 3.44186 7.04678V11.607C1.81714 11.607 0.5 12.906 0.5 14.5087V26.1157C0.5 27.7182 1.81714 29.0174 3.44186 29.0174H18.1511C19.7759 29.0174 21.093 27.7182 21.093 26.1157V14.5087C21.093 12.906 19.7759 11.607 18.1511 11.607ZM10.7965 23.2139C9.17178 23.2139 7.85464 21.9147 7.85464 20.3122C7.85464 18.7095 9.17178 17.4104 10.7965 17.4104C12.4212 17.4104 13.7384 18.7095 13.7384 20.3122C13.7384 21.9147 12.4212 23.2139 10.7965 23.2139Z" fill="black"/>
<path d="M18.1511 11.607H6.38371V7.04678C6.38371 4.76137 8.36314 2.90174 10.7965 2.90174C13.2298 2.90174 15.2093 4.76137 15.2093 7.04678V7.25435H18.1511V7.04678C18.1511 3.16103 14.8516 0 10.7965 0C6.74139 0 3.44186 3.16103 3.44186 7.04678V11.607C1.81714 11.607 0.5 12.906 0.5 14.5087V26.1157C0.5 27.7182 1.81714 29.0174 3.44186 29.0174H18.1511C19.7759 29.0174 21.093 27.7182 21.093 26.1157V14.5087C21.093 12.906 19.7759 11.607 18.1511 11.607ZM10.7965 23.2139C9.17178 23.2139 7.85464 21.9147 7.85464 20.3122C7.85464 18.7095 9.17178 17.4104 10.7965 17.4104C12.4212 17.4104 13.7384 18.7095 13.7384 20.3122C13.7384 21.9147 12.4212 23.2139 10.7965 23.2139Z" fill="url(#paint0_linear_2193_2742)"/>
</g>
<g id="Ellipse 3152">
<ellipse cx="10.7989" cy="20.5957" rx="3.74418" ry="3.74418" fill="#D9D9D9"/>
<ellipse cx="10.7989" cy="20.5957" rx="3.74418" ry="3.74418" fill="#8FDEFF"/>
</g>
</g>
<defs>
<linearGradient id="paint0_linear_2193_2742" x1="10.7965" y1="0" x2="10.7965" y2="29.0174" gradientUnits="userSpaceOnUse">
<stop stop-color="#3EC5FF"/>
<stop offset="1" stop-color="#0A98D5"/>
</linearGradient>
</defs>
</svg>
