<svg width="1440" height="676" viewBox="0 0 1440 676" fill="none" xmlns="http://www.w3.org/2000/svg">
<path opacity="0.6" d="M1623.25 338C1623.25 384.376 1598.12 428.647 1552.46 469.003C1506.81 509.358 1440.71 545.735 1358.96 576.3C1195.47 637.427 969.567 675.25 720 675.25C470.433 675.25 244.526 637.427 81.0381 576.3C-0.708725 545.735 -66.8107 509.358 -112.462 469.003C-158.115 428.647 -183.25 384.376 -183.25 338C-183.25 291.624 -158.115 247.353 -112.462 206.997C-66.8107 166.642 -0.708725 130.265 81.0381 99.7004C244.526 38.5732 470.433 0.75 720 0.75C969.567 0.75 1195.47 38.5732 1358.96 99.7004C1440.71 130.265 1506.81 166.642 1552.46 206.997C1598.12 247.353 1623.25 291.624 1623.25 338Z" stroke="url(#paint0_linear_1_1294)" stroke-width="1.5"/>
<defs>
<linearGradient id="paint0_linear_1_1294" x1="720" y1="0" x2="720" y2="676" gradientUnits="userSpaceOnUse">
<stop offset="0.678672" stop-color="white" stop-opacity="0"/>
<stop offset="1" stop-color="white"/>
</linearGradient>
</defs>
</svg>
