<svg width="1440" height="638" viewBox="0 0 1440 638" fill="none" xmlns="http://www.w3.org/2000/svg">
<path opacity="0.6" d="M1573.25 319C1573.25 362.752 1549.51 404.524 1506.39 442.607C1463.27 480.689 1400.83 515.019 1323.61 543.865C1169.17 601.553 955.76 637.25 720 637.25C484.24 637.25 270.833 601.553 116.393 543.865C39.1705 515.019 -23.2704 480.689 -66.392 442.607C-109.515 404.524 -133.25 362.752 -133.25 319C-133.25 275.248 -109.515 233.476 -66.392 195.393C-23.2704 157.311 39.1705 122.981 116.393 94.1355C270.833 36.4466 484.24 0.75 720 0.75C955.76 0.75 1169.17 36.4466 1323.61 94.1355C1400.83 122.981 1463.27 157.311 1506.39 195.393C1549.51 233.476 1573.25 275.248 1573.25 319Z" stroke="url(#paint0_linear_1_1296)" stroke-width="1.5"/>
<defs>
<linearGradient id="paint0_linear_1_1296" x1="720" y1="0" x2="720" y2="638" gradientUnits="userSpaceOnUse">
<stop offset="0.850449" stop-color="white" stop-opacity="0"/>
<stop offset="1" stop-color="white"/>
</linearGradient>
</defs>
</svg>
