<svg width="20" height="20" viewBox="0 0 20 20" fill="none" xmlns="http://www.w3.org/2000/svg">
<circle cx="10" cy="10" r="10" fill="white"/>
<path fill-rule="evenodd" clip-rule="evenodd" d="M5 10C5 8.67392 5.52678 7.40215 6.46447 6.46447C7.40215 5.52678 8.67392 5 10 5C11.3261 5 12.5979 5.52678 13.5355 6.46447C14.4732 7.40215 15 8.67392 15 10C15 11.3261 14.4732 12.5979 13.5355 13.5355C12.5979 14.4732 11.3261 15 10 15C8.67392 15 7.40215 14.4732 6.46447 13.5355C5.52678 12.5979 5 11.3261 5 10ZM10.4412 7.05882C10.4412 6.94182 10.3947 6.8296 10.312 6.74686C10.2292 6.66413 10.117 6.61765 10 6.61765C9.88299 6.61765 9.77078 6.66413 9.68804 6.74686C9.6053 6.8296 9.55882 6.94182 9.55882 7.05882V10C9.55879 10.0748 9.57778 10.1484 9.614 10.2138C9.65022 10.2793 9.70249 10.3344 9.76588 10.3741L11.5306 11.4771C11.6298 11.5392 11.7496 11.5593 11.8637 11.533C11.9202 11.52 11.9735 11.496 12.0208 11.4624C12.068 11.4288 12.1081 11.3862 12.1388 11.3371C12.1696 11.2879 12.1903 11.2332 12.1999 11.1761C12.2095 11.1189 12.2078 11.0604 12.1948 11.0039C12.1818 10.9475 12.1578 10.8941 12.1242 10.8469C12.0905 10.7997 12.048 10.7596 11.9988 10.7288L10.4412 9.75529V7.05882Z" fill="#6D50CC"/>
</svg>
