<svg width="30" height="27" viewBox="0 0 30 27" fill="none" xmlns="http://www.w3.org/2000/svg">
<g id="Group 212841">
<g id="Vector">
<path d="M13.1493 0V0.00155796H13.1477C5.88606 0.00155796 0 5.88762 0 13.1493C0 20.4109 5.88765 26.297 13.1493 26.297C20.4094 26.297 26.297 20.4109 26.297 13.1493C26.297 5.88762 20.4093 0 13.1493 0Z" fill="black"/>
<path d="M13.1493 0V0.00155796H13.1477C5.88606 0.00155796 0 5.88762 0 13.1493C0 20.4109 5.88765 26.297 13.1493 26.297C20.4094 26.297 26.297 20.4109 26.297 13.1493C26.297 5.88762 20.4093 0 13.1493 0Z" fill="url(#paint0_linear_2193_2751)"/>
</g>
<g id="Vector_2">
<path d="M18.9619 15.0183C18.1446 14.7059 17.3426 15.5079 17.655 16.3252L21.2546 25.7304C21.5675 26.5467 22.6986 26.6091 23.0992 25.8319L24.888 22.359C24.9119 22.3128 24.9495 22.2752 24.9957 22.2514L28.4686 20.4625C29.2458 20.062 29.1835 18.9309 28.3671 18.618L18.9619 15.0183Z" fill="black"/>
<path d="M18.9619 15.0183C18.1446 14.7059 17.3426 15.5079 17.655 16.3252L21.2546 25.7304C21.5675 26.5467 22.6986 26.6091 23.0992 25.8319L24.888 22.359C24.9119 22.3128 24.9495 22.2752 24.9957 22.2514L28.4686 20.4625C29.2458 20.062 29.1835 18.9309 28.3671 18.618L18.9619 15.0183Z" fill="#8FDEFF"/>
</g>
<path id="Vector 1213" d="M13.1524 3.75781V14.0301L6.57812 16.9063" stroke="#8FDEFF" stroke-width="2.81754" stroke-linecap="round"/>
</g>
<defs>
<linearGradient id="paint0_linear_2193_2751" x1="13.1485" y1="0" x2="13.1485" y2="26.297" gradientUnits="userSpaceOnUse">
<stop stop-color="#3EC5FF"/>
<stop offset="1" stop-color="#0A98D5"/>
</linearGradient>
</defs>
</svg>
