<svg width="24" height="24" viewBox="0 0 24 24" fill="none" xmlns="http://www.w3.org/2000/svg">
<path d="M8.41333 11.1933C9.37333 13.08 10.92 14.62 12.8067 15.5867L14.2733 14.12C14.4533 13.94 14.72 13.88 14.9533 13.96C15.7 14.2067 16.5067 14.34 17.3333 14.34C17.7 14.34 18 14.64 18 15.0067V17.3333C18 17.7 17.7 18 17.3333 18C11.0733 18 6 12.9267 6 6.66667C6 6.3 6.3 6 6.66667 6H9C9.36667 6 9.66667 6.3 9.66667 6.66667C9.66667 7.5 9.8 8.3 10.0467 9.04667C10.12 9.28 10.0667 9.54 9.88 9.72667L8.41333 11.1933Z" fill="#7C76C9"/>
<circle cx="12" cy="12" r="11.6667" stroke="#B7B3E7" stroke-width="0.666667"/>
</svg>
