<svg width="24" height="24" viewBox="0 0 24 24" fill="none" xmlns="http://www.w3.org/2000/svg">
<circle cx="12" cy="12" r="12" fill="url(#paint0_linear_2554_41394)"/>
<path d="M8.24146 11.0254C9.20146 12.912 10.7481 14.452 12.6348 15.4187L14.1015 13.952C14.2815 13.772 14.5481 13.712 14.7815 13.792C15.5281 14.0387 16.3348 14.172 17.1615 14.172C17.5281 14.172 17.8281 14.472 17.8281 14.8387V17.1654C17.8281 17.532 17.5281 17.832 17.1615 17.832C10.9015 17.832 5.82812 12.7587 5.82812 6.4987C5.82812 6.13203 6.12813 5.83203 6.49479 5.83203H8.82812C9.19479 5.83203 9.49479 6.13203 9.49479 6.4987C9.49479 7.33203 9.62812 8.13203 9.87479 8.8787C9.94812 9.11203 9.89479 9.37203 9.70812 9.5587L8.24146 11.0254Z" fill="white"/>
<defs>
<linearGradient id="paint0_linear_2554_41394" x1="-7.71135e-07" y1="-2" x2="31" y2="27.5" gradientUnits="userSpaceOnUse">
<stop stop-color="#9154F4"/>
<stop offset="1" stop-color="#4C2EC7"/>
</linearGradient>
</defs>
</svg>
