<svg width="24" height="24" viewBox="0 0 24 24" fill="none" xmlns="http://www.w3.org/2000/svg">
<circle cx="12" cy="12" r="12" fill="url(#paint0_linear_2554_41419)"/>
<path d="M6 9C6 7.89543 6.89543 7 8 7H16C16.5523 7 17 7.44772 17 8V16C17 16.5523 16.5523 17 16 17H8C6.89543 17 6 16.1046 6 15V9Z" fill="white"/>
<path fill-rule="evenodd" clip-rule="evenodd" d="M6.95204 7.71222C6.82059 7.71222 6.71403 7.81851 6.71403 7.94963V15.9621C6.71403 16.0933 6.82059 16.1995 6.95204 16.1995H16.77C16.9015 16.1995 17.008 16.0933 17.008 15.9621V7.94963C17.008 7.81851 16.9015 7.71222 16.77 7.71222H6.95204ZM6 7.94963C6 7.42516 6.42624 7 6.95204 7H16.77C17.2958 7 17.7221 7.42516 17.7221 7.94963V15.9621C17.7221 16.4866 17.2958 16.9118 16.77 16.9118H6.95204C6.42624 16.9118 6 16.4866 6 15.9621V7.94963Z" fill="white" stroke="white" stroke-width="0.5" stroke-linecap="round" stroke-linejoin="round"/>
<path fill-rule="evenodd" clip-rule="evenodd" d="M15.9189 9.09336C16.0334 9.21116 16.0257 9.39484 15.9017 9.50362C15.0028 10.2919 14.2932 10.9062 13.6858 11.3234C13.0785 11.7407 12.532 11.991 11.9583 11.9998C11.381 12.0086 10.8389 11.7722 10.2422 11.3549C9.64719 10.9389 8.95974 10.3151 8.09044 9.49647C7.97056 9.38356 7.96975 9.19974 8.08865 9.08589C8.20755 8.97204 8.40113 8.97128 8.52102 9.08419C9.39529 9.90755 10.0518 10.5007 10.6047 10.8874C11.156 11.2729 11.5659 11.425 11.9485 11.4192C12.3346 11.4133 12.7556 11.2458 13.3274 10.853C13.8991 10.4602 14.58 9.87227 15.4868 9.07704C15.6109 8.96825 15.8043 8.97556 15.9189 9.09336Z" fill="#7A48E5" stroke="#7A48E5" stroke-width="0.5" stroke-linecap="round" stroke-linejoin="round"/>
<defs>
<linearGradient id="paint0_linear_2554_41419" x1="-7.71135e-07" y1="-2" x2="31" y2="27.5" gradientUnits="userSpaceOnUse">
<stop stop-color="#9154F4"/>
<stop offset="1" stop-color="#4C2EC7"/>
</linearGradient>
</defs>
</svg>
