<svg width="64" height="64" viewBox="0 0 64 64" fill="none" xmlns="http://www.w3.org/2000/svg">
<g opacity="0.1">
<circle cx="32" cy="32" r="32" fill="#D9D9D9"/>
<circle cx="32" cy="32" r="32" fill="#3EC5FF"/>
</g>
<path d="M31.8503 21.8281C30.6123 21.8321 29.4033 22.203 28.376 22.8939C27.3488 23.5849 26.5494 24.5649 26.079 25.7101C25.6086 26.8552 25.4882 28.1142 25.7331 29.3277C25.978 30.5413 26.5772 31.655 27.4549 32.5281C28.3326 33.4012 29.4495 33.9945 30.6643 34.233C31.8791 34.4714 33.1373 34.3444 34.28 33.8679C35.4226 33.3914 36.3983 32.5868 37.0838 31.5559C37.7693 30.525 38.1337 29.3139 38.1311 28.0759C38.1241 26.4153 37.459 24.8252 36.2817 23.6541C35.1044 22.483 33.5109 21.8264 31.8503 21.8281Z" fill="#3EC5FF"/>
<path d="M20.4443 31.3966H21.9141C22.1408 31.3966 22.3581 31.3082 22.5184 31.1507C22.6786 30.9932 22.7687 30.7797 22.7687 30.557V24.982C22.7687 24.7594 22.6786 24.5458 22.5184 24.3883C22.3581 24.2309 22.1408 24.1424 21.9141 24.1424H21.0083C21.5869 21.7348 22.9759 19.5896 24.9503 18.0544C26.9247 16.5192 29.3689 15.6839 31.8868 15.6839C34.4048 15.6839 36.8489 16.5192 38.8234 18.0544C40.7978 19.5896 42.1868 21.7348 42.7654 24.1424H41.851C41.6244 24.1424 41.407 24.2309 41.2468 24.3883C41.0865 24.5458 40.9965 24.7594 40.9965 24.982V30.3639L39.2104 32.8239C39.2104 32.8239 39.2104 32.8239 39.2104 32.8743H39.0822C38.7509 32.8723 38.4276 32.9748 38.1601 33.1668C37.8925 33.3589 37.6948 33.6303 37.596 33.941C37.4973 34.2518 37.5027 34.5855 37.6115 34.893C37.7203 35.2005 37.9267 35.4656 38.2004 35.6491C38.4741 35.8327 38.8005 35.925 39.1316 35.9126C39.4627 35.9001 39.781 35.7835 40.0396 35.5799C40.2982 35.3764 40.4834 35.0966 40.568 34.7818C40.6526 34.467 40.632 34.1339 40.5094 33.8315C40.5094 33.8315 40.5521 33.8315 40.5692 33.7727L42.2783 31.4554H43.3209C44.2274 31.4554 45.0969 31.1016 45.7379 30.4717C46.379 29.8419 46.7391 28.9877 46.7391 28.097V27.5009C46.7411 26.8058 46.5235 26.1272 46.1164 25.5588C45.7092 24.9903 45.1326 24.56 44.466 24.3271C43.9261 21.4283 42.3686 18.8073 40.0647 16.9204C37.7608 15.0334 34.8564 14 31.8569 14C28.8575 14 25.953 15.0334 23.6491 16.9204C21.3452 18.8073 19.7878 21.4283 19.2479 24.3271C18.5861 24.5642 18.015 24.9963 17.6127 25.5644C17.2104 26.1325 16.9965 26.8088 17.0004 27.5009V27.9878C16.9935 28.4352 17.0778 28.8794 17.2481 29.2944C17.4184 29.7093 17.6714 30.0867 17.9922 30.4042C18.3131 30.7218 18.6952 30.9732 19.1163 31.1436C19.5374 31.314 19.9889 31.4 20.4443 31.3966Z" fill="black"/>
<path d="M20.4443 31.3966H21.9141C22.1408 31.3966 22.3581 31.3082 22.5184 31.1507C22.6786 30.9932 22.7687 30.7797 22.7687 30.557V24.982C22.7687 24.7594 22.6786 24.5458 22.5184 24.3883C22.3581 24.2309 22.1408 24.1424 21.9141 24.1424H21.0083C21.5869 21.7348 22.9759 19.5896 24.9503 18.0544C26.9247 16.5192 29.3689 15.6839 31.8868 15.6839C34.4048 15.6839 36.8489 16.5192 38.8234 18.0544C40.7978 19.5896 42.1868 21.7348 42.7654 24.1424H41.851C41.6244 24.1424 41.407 24.2309 41.2468 24.3883C41.0865 24.5458 40.9965 24.7594 40.9965 24.982V30.3639L39.2104 32.8239C39.2104 32.8239 39.2104 32.8239 39.2104 32.8743H39.0822C38.7509 32.8723 38.4276 32.9748 38.1601 33.1668C37.8925 33.3589 37.6948 33.6303 37.596 33.941C37.4973 34.2518 37.5027 34.5855 37.6115 34.893C37.7203 35.2005 37.9267 35.4656 38.2004 35.6491C38.4741 35.8327 38.8005 35.925 39.1316 35.9126C39.4627 35.9001 39.781 35.7835 40.0396 35.5799C40.2982 35.3764 40.4834 35.0966 40.568 34.7818C40.6526 34.467 40.632 34.1339 40.5094 33.8315C40.5094 33.8315 40.5521 33.8315 40.5692 33.7727L42.2783 31.4554H43.3209C44.2274 31.4554 45.0969 31.1016 45.7379 30.4717C46.379 29.8419 46.7391 28.9877 46.7391 28.097V27.5009C46.7411 26.8058 46.5235 26.1272 46.1164 25.5588C45.7092 24.9903 45.1326 24.56 44.466 24.3271C43.9261 21.4283 42.3686 18.8073 40.0647 16.9204C37.7608 15.0334 34.8564 14 31.8569 14C28.8575 14 25.953 15.0334 23.6491 16.9204C21.3452 18.8073 19.7878 21.4283 19.2479 24.3271C18.5861 24.5642 18.015 24.9963 17.6127 25.5644C17.2104 26.1325 16.9965 26.8088 17.0004 27.5009V27.9878C16.9935 28.4352 17.0778 28.8794 17.2481 29.2944C17.4184 29.7093 17.6714 30.0867 17.9922 30.4042C18.3131 30.7218 18.6952 30.9732 19.1163 31.1436C19.5374 31.314 19.9889 31.4 20.4443 31.3966Z" fill="#8FDEFF"/>
<path d="M44.2586 47.7235L41.4796 41.2159C40.692 39.3887 39.3741 37.8345 37.6931 36.7509C36.0121 35.6672 34.044 35.103 32.0387 35.1298C30.0333 35.1566 28.0813 35.7733 26.4305 36.9015C24.7797 38.0297 23.5045 39.6186 22.7671 41.4662L20.2349 47.7235C20.1397 47.9749 20.1056 48.245 20.1355 48.5119C20.1655 48.7788 20.2585 49.0349 20.4072 49.2594C20.5574 49.4844 20.7611 49.6695 21.0004 49.7985C21.2396 49.9274 21.5071 49.9962 21.7795 49.9989H42.7313C43.004 49.9981 43.2723 49.9308 43.5124 49.8028C43.7526 49.6748 43.9572 49.4902 44.1082 49.2653C44.2592 49.0403 44.352 48.7819 44.3782 48.513C44.4044 48.2441 44.3633 47.973 44.2586 47.7235Z" fill="url(#paint0_linear_2335_1998)"/>
<defs>
<linearGradient id="paint0_linear_2335_1998" x1="32.2554" y1="35.1289" x2="32.2554" y2="49.9989" gradientUnits="userSpaceOnUse">
<stop stop-color="#3EC5FF"/>
<stop offset="1" stop-color="#0A98D5"/>
</linearGradient>
</defs>
</svg>
