<svg width="64" height="64" viewBox="0 0 64 64" fill="none" xmlns="http://www.w3.org/2000/svg">
<circle opacity="0.1" cx="32" cy="32" r="32" fill="#3EC5FF"/>
<path d="M39.7377 45.8152L49.7121 38.8305C49.8011 38.7681 49.8736 38.6859 49.9237 38.5907C49.9737 38.4954 49.9999 38.3899 50 38.2828L50 38.2812C49.9998 38.1737 49.9733 38.0678 49.9229 37.9723C49.8724 37.8768 49.7994 37.7945 49.71 37.7322L39.7355 30.7925C39.6324 30.7208 39.511 30.6783 39.3848 30.6696C39.2586 30.661 39.1324 30.6865 39.0201 30.7435C38.9076 30.8001 38.8133 30.8861 38.7475 30.9918C38.6817 31.0976 38.6471 31.2191 38.6473 31.3429L38.6473 34.6088L29.6887 34.6086C29.5982 34.6085 29.5086 34.626 29.425 34.6599C29.3414 34.6937 29.2654 34.7434 29.2014 34.8061C29.1375 34.8687 29.0867 34.9431 29.0521 35.0249C29.0176 35.1068 28.9998 35.1945 28.9999 35.2831L29.0001 41.3257C29.0001 41.4143 29.0179 41.5021 29.0525 41.5839C29.0872 41.6658 29.138 41.7402 29.202 41.8028C29.266 41.8655 29.342 41.9151 29.4257 41.949C29.5093 41.9829 29.599 42.0003 29.6895 42.0002L38.647 42.0002L38.647 45.2672C38.647 45.5192 38.7922 45.7505 39.0214 45.8669C39.1341 45.9236 39.2606 45.9488 39.387 45.9397C39.5134 45.9306 39.6347 45.8875 39.7377 45.8152Z" fill="#8FDEFF"/>
<path d="M39.7377 45.8152L49.7121 38.8305C49.8011 38.7681 49.8736 38.6859 49.9237 38.5907C49.9737 38.4954 49.9999 38.3899 50 38.2828L50 38.2812C49.9998 38.1737 49.9733 38.0678 49.9229 37.9723C49.8724 37.8768 49.7994 37.7945 49.71 37.7322L39.7355 30.7925C39.6324 30.7208 39.511 30.6783 39.3848 30.6696C39.2586 30.661 39.1324 30.6865 39.0201 30.7435C38.9076 30.8001 38.8133 30.8861 38.7475 30.9918C38.6817 31.0976 38.6471 31.2191 38.6473 31.3429L38.6473 34.6088L29.6887 34.6086C29.5982 34.6085 29.5086 34.626 29.425 34.6599C29.3414 34.6937 29.2654 34.7434 29.2014 34.8061C29.1375 34.8687 29.0867 34.9431 29.0521 35.0249C29.0176 35.1068 28.9998 35.1945 28.9999 35.2831L29.0001 41.3257C29.0001 41.4143 29.0179 41.5021 29.0525 41.5839C29.0872 41.6658 29.138 41.7402 29.202 41.8028C29.266 41.8655 29.342 41.9151 29.4257 41.949C29.5093 41.9829 29.599 42.0003 29.6895 42.0002L38.647 42.0002L38.647 45.2672C38.647 45.5192 38.7922 45.7505 39.0214 45.8669C39.1341 45.9236 39.2606 45.9488 39.387 45.9397C39.5134 45.9306 39.6347 45.8875 39.7377 45.8152Z" fill="url(#paint0_linear_2335_2000)"/>
<path d="M24.2623 34.1472L14.2879 27.1625C14.1989 27.1001 14.1264 27.0179 14.0763 26.9227C14.0263 26.8275 14.0001 26.7219 14 26.6148L14 26.6132C14.0002 26.5057 14.0267 26.3998 14.0771 26.3043C14.1276 26.2089 14.2006 26.1265 14.29 26.0642L24.2645 19.1246C24.3676 19.0528 24.489 19.0103 24.6152 19.0016C24.7414 18.993 24.8676 19.0186 24.9799 19.0755C25.0924 19.1322 25.1867 19.2181 25.2525 19.3239C25.3183 19.4296 25.3529 19.5511 25.3527 19.6749L25.3527 22.9409L34.3113 22.9406C34.4018 22.9406 34.4914 22.958 34.575 22.9919C34.6586 23.0258 34.7346 23.0755 34.7986 23.1381C34.8625 23.2007 34.9133 23.2751 34.9479 23.357C34.9824 23.4388 35.0002 23.5265 35.0001 23.6151L34.9999 29.6577C34.9999 29.7464 34.9821 29.8341 34.9475 29.916C34.9128 29.9978 34.862 30.0722 34.798 30.1348C34.734 30.1975 34.658 30.2472 34.5743 30.281C34.4907 30.3149 34.401 30.3323 34.3105 30.3322L25.353 30.3322L25.353 33.5992C25.353 33.8512 25.2078 34.0826 24.9786 34.1989C24.8659 34.2557 24.7394 34.2809 24.613 34.2717C24.4866 34.2626 24.3653 34.2195 24.2623 34.1472Z" fill="#8FDEFF"/>
<defs>
<linearGradient id="paint0_linear_2335_2000" x1="50" y1="38.3047" x2="28.9999" y2="38.3047" gradientUnits="userSpaceOnUse">
<stop stop-color="#3EC5FF"/>
<stop offset="1" stop-color="#0A98D5"/>
</linearGradient>
</defs>
</svg>
