<svg width="102" height="102" viewBox="0 0 102 102" fill="none" xmlns="http://www.w3.org/2000/svg">
<circle cx="50.8429" cy="50.7804" r="50.7804" fill="white"/>
<g clip-path="url(#clip0_2193_2770)">
<path d="M56.9809 8.47426H52.2806L50.8381 4.08984L49.3956 8.47426H44.6953L48.5399 11.172L47.0426 15.5564L50.8381 12.8392L54.6336 15.5564L53.1335 11.172L56.9809 8.47426Z" fill="#D4B700"/>
</g>
<g clip-path="url(#clip1_2193_2770)">
<path d="M77.4653 14.2086H72.765L71.3225 9.82422L69.8799 14.2086H65.1797L69.0243 16.9063L67.527 21.2908L71.3225 18.5736L75.118 21.2908L73.6178 16.9063L77.4653 14.2086Z" fill="#D4B700"/>
</g>
<g clip-path="url(#clip2_2193_2770)">
<path d="M92.2075 28.9508H87.5072L86.0647 24.5664L84.6221 28.9508H79.9219L83.7665 31.6485L82.2692 36.033L86.0647 33.3158L89.8601 36.033L88.36 31.6485L92.2075 28.9508Z" fill="#D4B700"/>
</g>
<g clip-path="url(#clip3_2193_2770)">
<path d="M97.9418 49.4235H93.2416L91.799 45.0391L90.3565 49.4235H85.6562L89.5009 52.1212L88.0036 56.5056L91.799 53.7885L95.5945 56.5056L94.0944 52.1212L97.9418 49.4235Z" fill="#D4B700"/>
</g>
<g clip-path="url(#clip4_2193_2770)">
<path d="M92.2075 69.9079H87.5072L86.0647 65.5234L84.6221 69.9079H79.9219L83.7665 72.6056L82.2692 76.99L86.0647 74.2728L89.8601 76.99L88.36 72.6056L92.2075 69.9079Z" fill="#D4B700"/>
</g>
<g clip-path="url(#clip5_2193_2770)">
<path d="M77.4653 84.65H72.765L71.3225 80.2656L69.8799 84.65H65.1797L69.0243 87.3478L67.527 91.7322L71.3225 89.015L75.118 91.7322L73.6178 87.3478L77.4653 84.65Z" fill="#D4B700"/>
</g>
<g clip-path="url(#clip6_2193_2770)">
<path d="M56.9809 90.3844H52.2806L50.8381 86L49.3956 90.3844H44.6953L48.5399 93.0821L47.0426 97.4666L50.8381 94.7494L54.6336 97.4666L53.1335 93.0821L56.9809 90.3844Z" fill="#D4B700"/>
</g>
<g clip-path="url(#clip7_2193_2770)">
<path d="M36.5043 85.1377H31.8041L30.3615 81.0273L28.919 85.1377H24.2188L28.0634 87.6668L26.5661 91.7772L30.3615 89.2299L34.157 91.7772L32.6569 87.6668L36.5043 85.1377Z" fill="#D4B700"/>
</g>
<g clip-path="url(#clip8_2193_2770)">
<path d="M21.77 69.9079H17.0697L15.6272 65.5234L14.1846 69.9079H9.48438L13.329 72.6056L11.8317 76.99L15.6272 74.2728L19.4226 76.99L17.9225 72.6056L21.77 69.9079Z" fill="#D4B700"/>
</g>
<g clip-path="url(#clip9_2193_2770)">
<path d="M16.0356 49.4235H11.3353L9.89279 45.0391L8.45026 49.4235H3.75L7.59462 52.1212L6.09732 56.5056L9.89279 53.7885L13.6883 56.5056L12.1882 52.1212L16.0356 49.4235Z" fill="#D4B700"/>
</g>
<g clip-path="url(#clip10_2193_2770)">
<path d="M20.9787 28.9508H16.5722L15.2198 24.5664L13.8674 28.9508H9.46094L13.0653 31.6485L11.6615 36.033L15.2198 33.3158L18.7781 36.033L17.3717 31.6485L20.9787 28.9508Z" fill="#D4B700"/>
</g>
<g clip-path="url(#clip11_2193_2770)">
<path d="M36.5043 14.2086H31.8041L30.3615 9.82422L28.919 14.2086H24.2188L28.0634 16.9063L26.5661 21.2908L30.3615 18.5736L34.157 21.2908L32.6569 16.9063L36.5043 14.2086Z" fill="#D4B700"/>
</g>
<path d="M66.4766 57.3292V44.4766H74.793C75.9018 44.4766 76.095 45.1486 76.053 45.4846V50.7769C76.053 51.9865 75.549 52.5409 75.045 52.5409H73.0289L77.0611 57.3292H73.7849L70.3827 52.5409H68.4927V57.3292H66.4766Z" fill="#283584"/>
<path d="M29.6774 51.7902V49.5221H34.9697V55.5704C34.9697 56.78 34.2976 57.0824 33.9616 57.0824H26.1492C24.8388 57.0824 24.5952 56.2424 24.6372 55.8224V46.2459C24.6372 44.5323 25.4772 44.1878 25.8972 44.2298H33.4576C34.9697 44.2298 35.2637 45.4059 35.2217 45.9939V48.01H33.2056V46.498H26.6533V54.5623H32.9536V51.7902H29.6774Z" fill="#283584"/>
<path d="M39.2578 57.3312V44.2266H46.2839C47.6058 44.2266 48.6634 45.6229 49.2455 46.7408C49.5012 47.2318 49.5903 47.7857 49.5903 48.3393V53.8503C49.5903 55.1626 48.0871 56.2997 46.8872 56.9457C46.3651 57.2268 45.7723 57.3312 45.1794 57.3312H39.2578Z" fill="#283584"/>
<path d="M41.2656 54.8144V46.75H45.5498C46.2506 46.75 46.8296 47.3996 47.2021 48.0213C47.4842 48.4922 47.5659 49.0471 47.5659 49.596V52.6723C47.5659 53.3691 46.8835 53.9857 46.2263 54.3971C45.7195 54.7143 45.1162 54.8144 44.5183 54.8144H41.2656Z" fill="white"/>
<path d="M53.6172 44.4766V57.3292H55.8853V52.2889H62.1856C62.992 52.2889 63.1936 51.6169 63.1936 51.2809V45.7366C63.1936 44.7286 62.3536 44.4766 61.9336 44.4766H53.6172Z" fill="#283584"/>
<path d="M55.8828 46.75V50.0262H60.3146C60.5428 50.0262 60.7617 49.9355 60.9231 49.7741C61.0844 49.6128 61.1751 49.3939 61.1751 49.1657V47.6104C61.1751 47.3822 61.0844 47.1634 60.9231 47.002C60.7617 46.8407 60.5428 46.75 60.3146 46.75H55.8828Z" fill="white"/>
<path d="M68.4844 46.75V50.0262H72.9162C73.1444 50.0262 73.3633 49.9355 73.5246 49.7741C73.686 49.6128 73.7766 49.3939 73.7766 49.1657V47.6104C73.7766 47.3822 73.686 47.1634 73.5246 47.002C73.3633 46.8407 73.1444 46.75 72.9162 46.75H68.4844Z" fill="white"/>
<defs>
<clipPath id="clip0_2193_2770">
<rect width="13.1046" height="13.1046" fill="white" transform="translate(44.2812 3.27344)"/>
</clipPath>
<clipPath id="clip1_2193_2770">
<rect width="13.1046" height="13.1046" fill="white" transform="translate(64.7656 9.00781)"/>
</clipPath>
<clipPath id="clip2_2193_2770">
<rect width="13.1046" height="13.1046" fill="white" transform="translate(79.5078 23.75)"/>
</clipPath>
<clipPath id="clip3_2193_2770">
<rect width="13.1046" height="13.1046" fill="white" transform="translate(85.2422 44.2227)"/>
</clipPath>
<clipPath id="clip4_2193_2770">
<rect width="13.1046" height="13.1046" fill="white" transform="translate(79.5078 64.7031)"/>
</clipPath>
<clipPath id="clip5_2193_2770">
<rect width="13.1046" height="13.1046" fill="white" transform="translate(64.7656 79.4453)"/>
</clipPath>
<clipPath id="clip6_2193_2770">
<rect width="13.1046" height="13.1046" fill="white" transform="translate(44.2812 85.1797)"/>
</clipPath>
<clipPath id="clip7_2193_2770">
<rect width="13.1046" height="12.2856" fill="white" transform="translate(23.8125 80.2617)"/>
</clipPath>
<clipPath id="clip8_2193_2770">
<rect width="13.1046" height="13.1046" fill="white" transform="translate(9.07812 64.7031)"/>
</clipPath>
<clipPath id="clip9_2193_2770">
<rect width="13.1046" height="13.1046" fill="white" transform="translate(3.33594 44.2227)"/>
</clipPath>
<clipPath id="clip10_2193_2770">
<rect width="12.2856" height="13.1046" fill="white" transform="translate(9.07812 23.75)"/>
</clipPath>
<clipPath id="clip11_2193_2770">
<rect width="13.1046" height="13.1046" fill="white" transform="translate(23.8125 9.00781)"/>
</clipPath>
</defs>
</svg>
