<svg width="64" height="64" viewBox="0 0 64 64" fill="none" xmlns="http://www.w3.org/2000/svg">
<circle opacity="0.1" cx="32" cy="32" r="32" fill="#3EC5FF"/>
<path d="M19.8792 49.2443H35.3965C37.539 49.2443 39.2758 47.5076 39.2758 45.3651V24.5146L32.9719 18.2109H19.8792C17.7368 18.2109 16 19.9477 16 22.0902V45.3651C16 47.5076 17.7368 49.2443 19.8792 49.2443Z" fill="url(#paint0_linear_2335_1999)"/>
<path d="M39.281 24.5146H34.5722C33.4477 24.5146 32.5588 23.5614 32.6373 22.4397L32.933 18.2109L39.281 24.5146Z" fill="#9155F5"/>
<path d="M23.585 25.4753C23.2443 25.8159 22.7823 26.0073 22.3006 26.0073C21.8189 26.0073 21.3569 25.8159 21.0163 25.4753C20.6757 25.1347 20.4843 24.6728 20.4843 24.1911C20.4843 23.7094 20.6757 23.2474 21.0163 22.9068C21.3569 22.5662 21.8189 22.3748 22.3006 22.3748C22.7823 22.3748 23.2443 22.5662 23.585 22.9068C23.9256 23.2474 24.1169 23.7094 24.1169 24.1911C24.1169 24.6728 23.9256 25.1347 23.585 25.4753ZM19.1912 28.231C19.1915 27.9639 19.2977 27.7079 19.4865 27.5191C19.6756 27.33 19.932 27.2238 20.1993 27.2238H24.4019C24.6693 27.2238 24.9257 27.33 25.1148 27.5191C25.3038 27.7081 25.41 27.9645 25.41 28.2319L25.41 28.2333L25.4095 28.2485C25.4088 28.263 25.4075 28.286 25.4046 28.3164C25.3989 28.3772 25.3873 28.4666 25.3636 28.5751C25.316 28.7927 25.2209 29.0814 25.0325 29.3686C24.6666 29.926 23.9129 30.533 22.3006 30.533C20.6884 30.533 19.9346 29.926 19.5688 29.3686C19.3803 29.0814 19.2853 28.7927 19.2377 28.5751C19.214 28.4666 19.2023 28.3772 19.1966 28.3164C19.1938 28.286 19.1924 28.263 19.1918 28.2485L19.1913 28.2333L19.1912 28.2313L19.1912 28.2315C19.1912 28.2317 19.1912 28.2319 18.9062 28.2319H19.1912C19.1912 28.2316 19.1912 28.2313 19.1912 28.231ZM25.41 28.2309C25.41 28.2307 25.41 28.2307 25.41 28.2308V28.2309Z" stroke="#3C54BC" stroke-width="0.569959"/>
<path d="M20.3906 37.4375H34.2899" stroke="#3C54BC" stroke-width="2.20677" stroke-linecap="round"/>
<path d="M20.3906 41.4609H27.9902" stroke="#3C54BC" stroke-width="2.20677" stroke-linecap="round"/>
<path d="M25.1757 44.98L40.1643 48.996C42.2337 49.5505 44.3608 48.3224 44.9154 46.253L50.312 26.1129L45.8545 18.3925L33.208 15.004C31.1386 14.4495 29.0114 15.6776 28.4569 17.747L22.4327 40.2289C21.8782 42.2984 23.1063 44.4255 25.1757 44.98Z" fill="url(#paint1_linear_2335_1999)"/>
<path d="M25.1757 44.98L40.1643 48.996C42.2337 49.5505 44.3608 48.3224 44.9154 46.253L50.312 26.1129L45.8545 18.3925L33.208 15.004C31.1386 14.4495 29.0114 15.6776 28.4569 17.747L22.4327 40.2289C21.8782 42.2984 23.1063 44.4255 25.1757 44.98Z" fill="url(#paint2_linear_2335_1999)"/>
<path d="M50.3087 26.1115L45.7604 24.8928C44.6742 24.6018 44.0623 23.4511 44.4285 22.3878L45.8086 18.3797L50.3087 26.1115Z" fill="#8FDEFF"/>
<path d="M33.4645 23.4378C34.0028 23.582 34.5763 23.5065 35.0589 23.2278C35.5416 22.9492 35.8938 22.4903 36.038 21.952C36.1822 21.4137 36.1067 20.8401 35.8281 20.3575C35.5494 19.8749 35.0905 19.5227 34.5522 19.3785C34.0139 19.2343 33.4403 19.3098 32.9577 19.5884C32.475 19.8671 32.1229 20.326 31.9786 20.8643C31.8344 21.4026 31.9099 21.9761 32.1885 22.4587C32.4672 22.9414 32.9261 23.2935 33.4645 23.4378ZM29.6837 24.4327C29.7725 24.1015 29.9892 23.8191 30.2862 23.6476C30.5832 23.4761 30.9362 23.4297 31.2674 23.5184L35.3268 24.6061C35.6581 24.6948 35.9405 24.9116 36.112 25.2086C36.2835 25.5056 36.3299 25.8585 36.2412 26.1898C36.2412 26.1898 35.5718 28.6878 32.2931 27.8092C29.0144 26.9307 29.6837 24.4327 29.6837 24.4327Z" fill="#2930DD"/>
<path d="M33.4645 23.4378C34.0028 23.582 34.5763 23.5065 35.0589 23.2278C35.5416 22.9492 35.8938 22.4903 36.038 21.952C36.1822 21.4137 36.1067 20.8401 35.8281 20.3575C35.5494 19.8749 35.0905 19.5227 34.5522 19.3785C34.0139 19.2343 33.4403 19.3098 32.9577 19.5884C32.475 19.8671 32.1229 20.326 31.9786 20.8643C31.8344 21.4026 31.9099 21.9761 32.1885 22.4587C32.4672 22.9414 32.9261 23.2935 33.4645 23.4378ZM29.6837 24.4327C29.7725 24.1015 29.9892 23.8191 30.2862 23.6476C30.5832 23.4761 30.9362 23.4297 31.2674 23.5184L35.3268 24.6061C35.6581 24.6948 35.9405 24.9116 36.112 25.2086C36.2835 25.5056 36.3299 25.8585 36.2412 26.1898C36.2412 26.1898 35.5718 28.6878 32.2931 27.8092C29.0144 26.9307 29.6837 24.4327 29.6837 24.4327Z" fill="url(#paint3_linear_2335_1999)"/>
<path d="M33.4645 23.4378C34.0028 23.582 34.5763 23.5065 35.0589 23.2278C35.5416 22.9492 35.8938 22.4903 36.038 21.952C36.1822 21.4137 36.1067 20.8401 35.8281 20.3575C35.5494 19.8749 35.0905 19.5227 34.5522 19.3785C34.0139 19.2343 33.4403 19.3098 32.9577 19.5884C32.475 19.8671 32.1229 20.326 31.9786 20.8643C31.8344 21.4026 31.9099 21.9761 32.1885 22.4587C32.4672 22.9414 32.9261 23.2935 33.4645 23.4378ZM29.6837 24.4327C29.7725 24.1015 29.9892 23.8191 30.2862 23.6476C30.5832 23.4761 30.9362 23.4297 31.2674 23.5184L35.3268 24.6061C35.6581 24.6948 35.9405 24.9116 36.112 25.2086C36.2835 25.5056 36.3299 25.8585 36.2412 26.1898C36.2412 26.1898 35.5718 28.6878 32.2931 27.8092C29.0144 26.9307 29.6837 24.4327 29.6837 24.4327Z" fill="#8FDEFF"/>
<path d="M28.2422 33.4336L41.6679 37.0309" stroke="#8FDEFF" stroke-width="2.20677" stroke-linecap="round"/>
<path d="M27.0234 38.2734L34.3641 40.2403" stroke="#8FDEFF" stroke-width="2.20677" stroke-linecap="round"/>
<defs>
<linearGradient id="paint0_linear_2335_1999" x1="17" y1="20" x2="29.5001" y2="16.5004" gradientUnits="userSpaceOnUse">
<stop stop-color="#8FDEFF"/>
<stop offset="1" stop-color="#8FDEFF" stop-opacity="0"/>
</linearGradient>
<linearGradient id="paint1_linear_2335_1999" x1="38.3186" y1="37.4876" x2="44.2049" y2="46.7734" gradientUnits="userSpaceOnUse">
<stop stop-color="white"/>
<stop offset="1" stop-color="white" stop-opacity="0"/>
</linearGradient>
<linearGradient id="paint2_linear_2335_1999" x1="40.7023" y1="17.012" x2="32.6704" y2="46.9881" gradientUnits="userSpaceOnUse">
<stop stop-color="#3EC5FF"/>
<stop offset="1" stop-color="#0A98D5"/>
</linearGradient>
<linearGradient id="paint3_linear_2335_1999" x1="32.8651" y1="19.6216" x2="35.5667" y2="27.2594" gradientUnits="userSpaceOnUse">
<stop stop-color="#9154F4"/>
<stop offset="1" stop-color="#4C2EC7"/>
</linearGradient>
</defs>
</svg>
