<svg width="131" height="61" viewBox="0 0 131 61" fill="none" xmlns="http://www.w3.org/2000/svg">
<g clip-path="url(#clip0_12740_940)">
<path d="M99.1641 20.4441L122.297 4.15466L121.27 9.77204L99.1641 20.4441Z" fill="#5B9AF0" fill-opacity="0.9"/>
<path d="M99.1641 20.4441L122.297 4.15466L121.27 9.77204L99.1641 20.4441Z" fill="url(#paint0_linear_12740_940)"/>
<path d="M120.08 16.2911L118.969 22.3757L99.1645 20.4441L120.08 16.2911Z" fill="#5B9AF0" fill-opacity="0.5"/>
<path d="M120.08 16.2911L118.969 22.3757L99.1645 20.4441L120.08 16.2911Z" fill="url(#paint1_linear_12740_940)"/>
<path d="M121.271 9.77206L120.08 16.2912L99.1642 20.4441L121.271 9.77206Z" fill="#5B9AF0" fill-opacity="0.75"/>
<path d="M121.271 9.77206L120.08 16.2912L99.1642 20.4441L121.271 9.77206Z" fill="url(#paint2_linear_12740_940)"/>
<g opacity="0.8">
<path d="M116.751 34.5105L122.297 4.15462L117.762 7.34764L116.751 34.5105Z" fill="#FD167C" fill-opacity="0.9"/>
<path d="M116.751 34.5105L122.297 4.15462L117.762 7.34764L116.751 34.5105Z" fill="url(#paint3_linear_12740_940)"/>
<path d="M112.791 10.8482L108.14 14.1235L116.751 34.5107L112.791 10.8482Z" fill="#FD167C" fill-opacity="0.6"/>
<path d="M112.791 10.8482L108.14 14.1235L116.751 34.5107L112.791 10.8482Z" fill="url(#paint4_linear_12740_940)"/>
<path d="M117.763 7.3477L112.792 10.8481L116.751 34.5106L117.763 7.3477Z" fill="#FD167C" fill-opacity="0.8"/>
<path d="M117.763 7.3477L112.792 10.8481L116.751 34.5106L117.763 7.3477Z" fill="url(#paint5_linear_12740_940)"/>
</g>
<path d="M10.6483 47.9283V13.1426H12.777V38.7844H12.8738L24.34 24.7056H26.8074L19.2601 33.8979L28.0653 47.9283H25.6947L18.0022 35.4945L12.777 41.5905V47.9283H10.6483ZM35.945 48.5089C34.042 48.5089 33.0905 47.2833 33.0905 44.832V13.1426H35.2193V45.1223C35.2193 46.1221 35.5579 46.6221 36.2352 46.6221C36.332 46.6221 36.4449 46.6221 36.5739 46.6221C36.7029 46.5898 36.8803 46.5576 37.1061 46.5253L37.4931 48.267C37.2674 48.3315 37.0416 48.3799 36.8158 48.4122C36.59 48.4767 36.2998 48.5089 35.945 48.5089ZM53.3767 48.5089C51.4093 48.5089 49.6031 48.0251 47.9581 47.0575C46.3454 46.0899 45.0553 44.703 44.0877 42.8968C43.12 41.0583 42.6362 38.8812 42.6362 36.3654C42.6362 33.8173 43.12 31.6402 44.0877 29.834C45.0553 27.9955 46.3132 26.5925 47.8613 25.6248C49.4095 24.625 51.0383 24.125 52.7478 24.125C55.5216 24.125 57.6988 25.0604 59.2792 26.9311C60.8596 28.8018 61.6498 31.4467 61.6498 34.8656C61.6498 35.1558 61.6337 35.4461 61.6015 35.7364C61.6015 36.0267 61.5692 36.317 61.5047 36.6073H44.8134C44.8456 38.5425 45.2165 40.2681 45.9261 41.784C46.668 43.2999 47.684 44.4933 48.9741 45.3642C50.2965 46.235 51.8286 46.6704 53.5703 46.6704C54.8282 46.6704 55.957 46.4769 56.9569 46.0899C57.989 45.7028 58.9405 45.2029 59.8114 44.5901L60.6822 46.235C59.7791 46.7833 58.7631 47.2994 57.6342 47.7832C56.5054 48.267 55.0862 48.5089 53.3767 48.5089ZM44.8134 34.8656H59.6179C59.6179 31.8982 59.005 29.6727 57.7794 28.189C56.5537 26.7054 54.8927 25.9635 52.7962 25.9635C51.4738 25.9635 50.232 26.3183 49.0709 27.0279C47.942 27.7375 46.9905 28.7535 46.2164 30.0759C45.4423 31.3983 44.9746 32.9948 44.8134 34.8656ZM67.9586 47.9283V24.7056H69.7971L69.9906 28.2858H70.1357C71.3291 27.0924 72.5548 26.1087 73.8127 25.3346C75.1028 24.5282 76.5381 24.125 78.1186 24.125C80.5053 24.125 82.2632 24.8669 83.392 26.3506C84.5532 27.802 85.1338 30.0275 85.1338 33.0271V47.9283H83.005V33.3174C83.005 30.8338 82.5857 29.0115 81.7471 27.8504C80.9408 26.657 79.5861 26.0603 77.6831 26.0603C76.2962 26.0603 75.0383 26.4312 73.9094 27.173C72.7806 27.8826 71.5065 28.9631 70.0874 30.4145V47.9283H67.9586ZM100.046 48.5089C97.7882 48.5089 96.2561 47.8638 95.4498 46.5737C94.6435 45.2513 94.2403 43.558 94.2403 41.4937V26.5441H90.6117V24.8991L94.2887 24.7056L94.5789 17.9807H96.4174V24.7056H103.142V26.5441H96.4174V41.6872C96.4174 43.1709 96.6754 44.3643 97.1915 45.2674C97.7076 46.1705 98.7558 46.6221 100.336 46.6221C100.788 46.6221 101.272 46.5576 101.788 46.4285C102.336 46.2673 102.82 46.0899 103.239 45.8964L103.82 47.6381C103.142 47.8638 102.449 48.0574 101.739 48.2186C101.062 48.4122 100.498 48.5089 100.046 48.5089ZM107.861 58.5237C106.99 58.5237 106.2 58.3624 105.49 58.0399L105.974 56.1531C106.232 56.2498 106.522 56.3305 106.845 56.395C107.199 56.4917 107.538 56.5401 107.861 56.5401C109.28 56.5401 110.473 55.9595 111.441 54.7984C112.441 53.6373 113.231 52.1697 113.811 50.3958L114.44 48.3638L104.909 24.7056H107.232L112.844 39.3166C113.199 40.2842 113.602 41.3486 114.053 42.5097C114.505 43.6708 114.94 44.7675 115.36 45.7996H115.553C115.908 44.7675 116.263 43.6708 116.617 42.5097C117.005 41.3486 117.359 40.2842 117.682 39.3166L122.665 24.7056H124.842L115.65 50.8312C115.231 52.1213 114.666 53.347 113.957 54.5081C113.279 55.7015 112.441 56.6691 111.441 57.411C110.441 58.1528 109.247 58.5237 107.861 58.5237Z" fill="#004D77"/>
</g>
<defs>
<linearGradient id="paint0_linear_12740_940" x1="107.314" y1="16.3661" x2="125.542" y2="5.96121" gradientUnits="userSpaceOnUse">
<stop stop-color="#5B9AF0" stop-opacity="0.85"/>
<stop offset="1" stop-color="white" stop-opacity="0"/>
</linearGradient>
<linearGradient id="paint1_linear_12740_940" x1="100.091" y1="15.3168" x2="115.91" y2="8.76139" gradientUnits="userSpaceOnUse">
<stop offset="0.265209" stop-color="#5B9AF0" stop-opacity="0.4"/>
<stop offset="1" stop-color="white" stop-opacity="0"/>
</linearGradient>
<linearGradient id="paint2_linear_12740_940" x1="99.5346" y1="18.045" x2="127.198" y2="8.53159" gradientUnits="userSpaceOnUse">
<stop offset="0.186644" stop-color="#5B9AF0" stop-opacity="0.6"/>
<stop offset="1" stop-color="white" stop-opacity="0"/>
</linearGradient>
<linearGradient id="paint3_linear_12740_940" x1="122.039" y1="17.1006" x2="124.401" y2="3.54857" gradientUnits="userSpaceOnUse">
<stop stop-color="#FD167C" stop-opacity="0.8"/>
<stop offset="1" stop-color="white" stop-opacity="0"/>
</linearGradient>
<linearGradient id="paint4_linear_12740_940" x1="117.501" y1="36.0932" x2="123.836" y2="10.9312" gradientUnits="userSpaceOnUse">
<stop stop-color="#FD167C" stop-opacity="0.5"/>
<stop offset="1" stop-color="white" stop-opacity="0"/>
</linearGradient>
<linearGradient id="paint5_linear_12740_940" x1="126.67" y1="28.748" x2="124.178" y2="1.51618" gradientUnits="userSpaceOnUse">
<stop offset="0.226511" stop-color="#FD167C" stop-opacity="0.7"/>
<stop offset="1" stop-color="white" stop-opacity="0"/>
</linearGradient>
<clipPath id="clip0_12740_940">
<rect width="131" height="60.786" fill="white"/>
</clipPath>
</defs>
</svg>
