<svg width="24" height="24" viewBox="0 0 24 24" fill="none" xmlns="http://www.w3.org/2000/svg">
<circle cx="12" cy="12" r="12" fill="url(#paint0_linear_2554_41418)"/>
<path d="M16.2246 16.2247H14.4465V13.4402C14.4465 12.7762 14.4347 11.9215 13.5218 11.9215C12.5957 11.9215 12.454 12.6449 12.454 13.3919V16.2245H10.6761V10.4985H12.3829V11.281H12.4068C12.5776 10.9889 12.8245 10.7487 13.1211 10.5858C13.4176 10.4229 13.7528 10.3435 14.091 10.356C15.8931 10.356 16.2253 11.5414 16.2253 13.0835L16.2246 16.2247ZM8.66981 9.71581C8.09995 9.7159 7.63791 9.254 7.63781 8.68414C7.63772 8.11428 8.09958 7.65223 8.66944 7.65214C9.2393 7.652 9.70134 8.1139 9.70144 8.68376C9.70149 8.95742 9.59283 9.21989 9.39936 9.41344C9.2059 9.60698 8.94347 9.71575 8.66981 9.71581ZM9.55884 16.2248H7.77895V10.4985H9.5588V16.2247L9.55884 16.2248ZM17.111 6.00087H6.88552C6.40223 5.99544 6.00591 6.38258 6 6.86586V17.134C6.00572 17.6175 6.402 18.005 6.88547 17.9999H17.111C17.5955 18.0059 17.9933 17.6184 18 17.134V6.86506C17.9931 6.38084 17.5952 5.99375 17.111 6.00008" fill="white"/>
<defs>
<linearGradient id="paint0_linear_2554_41418" x1="-7.71135e-07" y1="-2" x2="31" y2="27.5" gradientUnits="userSpaceOnUse">
<stop stop-color="#9154F4"/>
<stop offset="1" stop-color="#4C2EC7"/>
</linearGradient>
</defs>
</svg>
