<svg width="22" height="30" viewBox="0 0 22 30" fill="none" xmlns="http://www.w3.org/2000/svg">
<g id="Group 210630">
<g id="Vector 279">
<path d="M4.06875 10.143L7.63984 9.63281L8.66015 15.7547L11.2109 19.3258L13.7617 15.7547L14.782 10.143L19.8836 11.1633L20.3937 19.3258L21.4141 22.3867L20.9039 23.407H1.00781C1.34792 20.176 2.13016 13.408 2.53828 12.1836C2.94641 10.9592 3.72864 10.313 4.06875 10.143Z" fill="#C9CBFA"/>
<path d="M4.06875 10.143L7.63984 9.63281L8.66015 15.7547L11.2109 19.3258L13.7617 15.7547L14.782 10.143L19.8836 11.1633L20.3937 19.3258L21.4141 22.3867L20.9039 23.407H1.00781C1.34792 20.176 2.13016 13.408 2.53828 12.1836C2.94641 10.9592 3.72864 10.313 4.06875 10.143Z" fill="url(#paint0_linear_2193_2730)"/>
<path d="M4.06875 10.143L7.63984 9.63281L8.66015 15.7547L11.2109 19.3258L13.7617 15.7547L14.782 10.143L19.8836 11.1633L20.3937 19.3258L21.4141 22.3867L20.9039 23.407H1.00781C1.34792 20.176 2.13016 13.408 2.53828 12.1836C2.94641 10.9592 3.72864 10.313 4.06875 10.143Z" fill="url(#paint1_linear_2193_2730)"/>
</g>
<g id="Vector">
<path fill-rule="evenodd" clip-rule="evenodd" d="M13.2932 15.8353L14.1565 9.16406L18.3162 9.87045C19.4936 10.0274 20.2784 10.9693 20.4354 12.1465L21.7973 22.8985C21.8659 23.4402 21.4437 23.9193 20.8977 23.9193H1.5289C0.982866 23.9193 0.560678 23.4402 0.629293 22.8985L1.9912 12.1465C2.14814 10.9691 2.85451 10.0274 4.11031 9.87045L8.27009 9.16406L9.13339 15.8353L9.83977 16.6986L10.3108 12.1337C9.76134 11.7412 9.91825 11.1134 9.91825 10.4855C9.91825 9.30813 12.5083 9.30813 12.5083 10.4855C12.5083 11.1134 12.6653 11.7413 12.0374 12.1337L12.5868 16.6986L13.2932 15.8353ZM7.32826 10.4199L4.26737 10.8908C3.48255 10.9693 3.09 11.5972 3.01156 12.3036L1.67728 22.8206H20.6706L19.4148 12.3036C19.2578 11.5972 18.8653 10.9693 18.159 10.8908L15.0196 10.4199L14.2348 16.2279L11.1739 20.2306L8.11299 16.2279L7.32826 10.4199ZM14.6276 16.0708H18.9443V17.6404H14.6276V16.0708Z" fill="#D2B7FF"/>
<path fill-rule="evenodd" clip-rule="evenodd" d="M13.2932 15.8353L14.1565 9.16406L18.3162 9.87045C19.4936 10.0274 20.2784 10.9693 20.4354 12.1465L21.7973 22.8985C21.8659 23.4402 21.4437 23.9193 20.8977 23.9193H1.5289C0.982866 23.9193 0.560678 23.4402 0.629293 22.8985L1.9912 12.1465C2.14814 10.9691 2.85451 10.0274 4.11031 9.87045L8.27009 9.16406L9.13339 15.8353L9.83977 16.6986L10.3108 12.1337C9.76134 11.7412 9.91825 11.1134 9.91825 10.4855C9.91825 9.30813 12.5083 9.30813 12.5083 10.4855C12.5083 11.1134 12.6653 11.7413 12.0374 12.1337L12.5868 16.6986L13.2932 15.8353ZM7.32826 10.4199L4.26737 10.8908C3.48255 10.9693 3.09 11.5972 3.01156 12.3036L1.67728 22.8206H20.6706L19.4148 12.3036C19.2578 11.5972 18.8653 10.9693 18.159 10.8908L15.0196 10.4199L14.2348 16.2279L11.1739 20.2306L8.11299 16.2279L7.32826 10.4199ZM14.6276 16.0708H18.9443V17.6404H14.6276V16.0708Z" fill="url(#paint2_linear_2193_2730)"/>
<path fill-rule="evenodd" clip-rule="evenodd" d="M13.2932 15.8353L14.1565 9.16406L18.3162 9.87045C19.4936 10.0274 20.2784 10.9693 20.4354 12.1465L21.7973 22.8985C21.8659 23.4402 21.4437 23.9193 20.8977 23.9193H1.5289C0.982866 23.9193 0.560678 23.4402 0.629293 22.8985L1.9912 12.1465C2.14814 10.9691 2.85451 10.0274 4.11031 9.87045L8.27009 9.16406L9.13339 15.8353L9.83977 16.6986L10.3108 12.1337C9.76134 11.7412 9.91825 11.1134 9.91825 10.4855C9.91825 9.30813 12.5083 9.30813 12.5083 10.4855C12.5083 11.1134 12.6653 11.7413 12.0374 12.1337L12.5868 16.6986L13.2932 15.8353ZM7.32826 10.4199L4.26737 10.8908C3.48255 10.9693 3.09 11.5972 3.01156 12.3036L1.67728 22.8206H20.6706L19.4148 12.3036C19.2578 11.5972 18.8653 10.9693 18.159 10.8908L15.0196 10.4199L14.2348 16.2279L11.1739 20.2306L8.11299 16.2279L7.32826 10.4199ZM14.6276 16.0708H18.9443V17.6404H14.6276V16.0708Z" fill="url(#paint3_linear_2193_2730)"/>
</g>
<g id="Ellipse 567">
<circle cx="11.2162" cy="3.85678" r="3.85678" fill="#C9CBFA"/>
<circle cx="11.2162" cy="3.85678" r="3.85678" fill="url(#paint4_linear_2193_2730)"/>
<circle cx="11.2162" cy="3.85678" r="3.85678" fill="#3EC5FF"/>
</g>
<g id="Group 210629">
<g id="Ellipse 554">
<circle cx="11.7234" cy="22.8992" r="6.12187" fill="#6166E2"/>
<circle cx="11.7234" cy="22.8992" r="6.12187" fill="url(#paint5_linear_2193_2730)"/>
<circle cx="11.7234" cy="22.8992" r="6.12187" fill="#8FDEFF"/>
</g>
<g id="Group 210612">
<path id="Vector_2" d="M9.15625 23.2226L10.7414 24.9486L13.9116 21.25" stroke="#201D92" stroke-width="1.10827" stroke-linecap="round" stroke-linejoin="round"/>
</g>
</g>
</g>
<defs>
<linearGradient id="paint0_linear_2193_2730" x1="6.5018" y1="10.6924" x2="11.4506" y2="24.4181" gradientUnits="userSpaceOnUse">
<stop stop-color="#9154F4"/>
<stop offset="1" stop-color="#4C2EC7"/>
</linearGradient>
<linearGradient id="paint1_linear_2193_2730" x1="11.2109" y1="9.63281" x2="11.2109" y2="23.407" gradientUnits="userSpaceOnUse">
<stop stop-color="#3EC5FF"/>
<stop offset="1" stop-color="#0A98D5"/>
</linearGradient>
<linearGradient id="paint2_linear_2193_2730" x1="6.26869" y1="10.2991" x2="11.6518" y2="24.9337" gradientUnits="userSpaceOnUse">
<stop stop-color="#9154F4"/>
<stop offset="1" stop-color="#4C2EC7"/>
</linearGradient>
<linearGradient id="paint3_linear_2193_2730" x1="11.2133" y1="9.16406" x2="11.2133" y2="23.9193" gradientUnits="userSpaceOnUse">
<stop stop-color="#3EC5FF"/>
<stop offset="1" stop-color="#0A98D5"/>
</linearGradient>
<linearGradient id="paint4_linear_2193_2730" x1="9.4361" y1="0.593351" x2="13.0457" y2="7.35096" gradientUnits="userSpaceOnUse">
<stop stop-color="#9154F4"/>
<stop offset="1" stop-color="#4C2EC7"/>
</linearGradient>
<linearGradient id="paint5_linear_2193_2730" x1="8.89796" y1="17.7192" x2="14.6274" y2="28.4455" gradientUnits="userSpaceOnUse">
<stop stop-color="#9154F4"/>
<stop offset="1" stop-color="#4C2EC7"/>
</linearGradient>
</defs>
</svg>
