<svg width="20" height="20" viewBox="0 0 20 20" fill="none" xmlns="http://www.w3.org/2000/svg">
<circle cx="10" cy="10" r="10" fill="white"/>
<path d="M8.92756 4.08203C9.04561 4.08203 9.15881 4.12892 9.24228 4.21239C9.32575 4.29586 9.37264 4.40907 9.37264 4.52711V6.0107C9.37264 6.12874 9.32575 6.24195 9.24228 6.32541C9.15881 6.40888 9.04561 6.45577 8.92756 6.45577C8.80952 6.45577 8.69632 6.40888 8.61285 6.32541C8.52938 6.24195 8.48249 6.12874 8.48249 6.0107V4.52711C8.48249 4.40907 8.52938 4.29586 8.61285 4.21239C8.69632 4.12892 8.80952 4.08203 8.92756 4.08203ZM6.09094 5.2511C6.17439 5.16775 6.28752 5.12093 6.40546 5.12093C6.52341 5.12093 6.63653 5.16775 6.71998 5.2511L7.7585 6.28961C7.80222 6.33036 7.8373 6.37949 7.86162 6.43409C7.88595 6.48869 7.89903 6.54762 7.90008 6.60738C7.90114 6.66714 7.89015 6.7265 7.86776 6.78192C7.84538 6.83734 7.81206 6.88769 7.76979 6.92995C7.72753 6.97221 7.67719 7.00553 7.62177 7.02792C7.56635 7.0503 7.50699 7.0613 7.44723 7.06024C7.38747 7.05919 7.32853 7.04611 7.27393 7.02178C7.21934 6.99745 7.1702 6.96238 7.12945 6.91865L6.09094 5.88014C6.00759 5.79669 5.96078 5.68357 5.96078 5.56562C5.96078 5.44767 6.00759 5.33455 6.09094 5.2511ZM11.7642 5.2511C11.8475 5.33455 11.8943 5.44767 11.8943 5.56562C11.8943 5.68357 11.8475 5.79669 11.7642 5.88014L10.7257 6.91865C10.6849 6.96238 10.6358 6.99745 10.5812 7.02178C10.5266 7.04611 10.4677 7.05919 10.4079 7.06024C10.3481 7.0613 10.2888 7.0503 10.2334 7.02792C10.1779 7.00553 10.1276 6.97221 10.0853 6.92995C10.0431 6.88769 10.0098 6.83734 9.98737 6.78192C9.96498 6.7265 9.95399 6.66714 9.95504 6.60738C9.9561 6.54762 9.96918 6.48869 9.9935 6.43409C10.0178 6.37949 10.0529 6.33036 10.0966 6.28961L11.1351 5.2511C11.2186 5.16775 11.3317 5.12093 11.4497 5.12093C11.5676 5.12093 11.6807 5.16775 11.7642 5.2511ZM4.92188 8.08772C4.92188 7.96968 4.96877 7.85647 5.05223 7.773C5.1357 7.68954 5.24891 7.64264 5.36695 7.64264H6.85054C6.96858 7.64264 7.08179 7.68954 7.16526 7.773C7.24872 7.85647 7.29562 7.96968 7.29562 8.08772C7.29562 8.20576 7.24872 8.31897 7.16526 8.40244C7.08179 8.4859 6.96858 8.5328 6.85054 8.5328H5.36695C5.24891 8.5328 5.1357 8.4859 5.05223 8.40244C4.96877 8.31897 4.92188 8.20576 4.92188 8.08772ZM8.48249 8.52508C8.48249 7.85628 9.26701 7.49547 9.7744 7.93105L14.7955 12.2346C15.3355 12.6975 15.0281 13.5823 14.3177 13.6114L12.0389 13.7022C11.7939 13.7117 11.5636 13.8209 11.3998 14.0031L9.84858 15.7371C9.36967 16.273 8.48249 15.9335 8.48249 15.2149V8.52508Z" fill="#6D50CC"/>
</svg>
