<svg width="20" height="20" viewBox="0 0 20 20" fill="none" xmlns="http://www.w3.org/2000/svg">
<circle cx="10" cy="10" r="10" fill="white"/>
<path d="M5 7C5.00043 6.6465 5.15108 6.3076 5.4189 6.05764C5.68671 5.80768 6.04982 5.66707 6.42857 5.66667H7.14286V5.33333C7.14286 5.24493 7.18048 5.16014 7.24746 5.09763C7.31444 5.03512 7.40528 5 7.5 5C7.59472 5 7.68556 5.03512 7.75254 5.09763C7.81952 5.16014 7.85714 5.24493 7.85714 5.33333V5.66667H12.1429V5.33333C12.1429 5.24493 12.1805 5.16014 12.2475 5.09763C12.3144 5.03512 12.4053 5 12.5 5C12.5947 5 12.6856 5.03512 12.7525 5.09763C12.8195 5.16014 12.8571 5.24493 12.8571 5.33333V5.66667H13.5714C13.9502 5.66707 14.3133 5.80768 14.5811 6.05764C14.8489 6.3076 14.9996 6.6465 15 7H5ZM5 7.66667V13.6667C5.00043 14.0202 5.15108 14.3591 5.4189 14.609C5.68671 14.859 6.04982 14.9996 6.42857 15H13.5714C13.9502 14.9996 14.3133 14.859 14.5811 14.609C14.8489 14.3591 14.9996 14.0202 15 13.6667V7.66667H5ZM9.64286 13C9.59595 13 9.5495 12.9914 9.50617 12.9747C9.46284 12.9579 9.42348 12.9333 9.39034 12.9023L7.96177 11.569C7.89672 11.5061 7.86072 11.4219 7.86153 11.3345C7.86234 11.2471 7.8999 11.1635 7.96612 11.1017C8.03234 11.0399 8.12192 11.0049 8.21556 11.0041C8.3092 11.0034 8.39941 11.037 8.46677 11.0977L9.57168 12.1289L11.4795 9.16213C11.5282 9.08652 11.6071 9.03205 11.6989 9.01068C11.7906 8.98931 11.8877 9.00277 11.9688 9.04813C12.0499 9.09348 12.1084 9.16701 12.1315 9.25259C12.1546 9.33817 12.1403 9.42879 12.0919 9.50459L9.94905 12.8379C9.92129 12.8814 9.88322 12.9184 9.83776 12.9461C9.79229 12.9737 9.74064 12.9913 9.68677 12.9974C9.67222 12.9993 9.65754 13.0001 9.64286 13Z" fill="#6D50CC"/>
</svg>
