<svg width="123" height="153" viewBox="0 0 123 153" fill="none" xmlns="http://www.w3.org/2000/svg">
<g id="Group 212892">
<path id="Vector" d="M14.78 112.409C4.8302 90.0193 0.346632 58.6263 1.07657 18.8738C23.7426 19.0844 43.8933 13.2045 61.499 1.21264C79.1046 13.2045 99.2572 19.0844 121.923 18.8738C122.653 58.6263 118.169 90.0193 108.219 112.409C98.2348 134.876 82.7728 148.241 61.499 151.985C40.2252 148.241 24.7637 134.876 14.78 112.409Z" fill="url(#paint0_linear_2345_25171)" stroke="url(#paint1_linear_2345_25171)" stroke-width="2"/>
<g id="Group 212708">
<g id="Group 212706">
<g id="Ellipse 1723">
<circle cx="61" cy="74" r="24" fill="#2930DD"/>
<circle cx="61" cy="74" r="24" fill="#9279F6"/>
</g>
</g>
<g id="Group 212707">
<path id="Vector_2" d="M75.8918 72.6425C75.8271 68.7359 74.2298 65.0111 71.4442 62.2713C68.6586 59.5315 64.908 57.9961 61.0008 57.9961C57.0936 57.9961 53.343 59.5315 50.5574 62.2713C47.7719 65.0111 46.1745 68.7359 46.1098 72.6425C45.7735 72.834 45.4937 73.1111 45.2988 73.4455C45.1039 73.7799 45.0008 74.16 45 74.547V78.9611C44.9999 79.2509 45.057 79.5379 45.1678 79.8057C45.2787 80.0735 45.4413 80.3169 45.6462 80.5218C45.8512 80.7268 46.0945 80.8893 46.3623 81.0002C46.6301 81.1111 46.9172 81.1681 47.207 81.1681V72.8918C47.207 69.2334 48.6603 65.7249 51.2471 63.1381C53.834 60.5513 57.3425 59.098 61.0008 59.098C64.6591 59.098 68.1677 60.5513 70.7545 63.1381C73.3413 65.7249 74.7946 69.2334 74.7946 72.8918V82.8233C74.7931 84.1399 74.2695 85.4021 73.3385 86.333C72.4076 87.264 71.1454 87.7876 69.8288 87.7891H64.21C64.0968 87.467 63.8867 87.188 63.6084 86.9904C63.3301 86.7927 62.9974 86.6863 62.6561 86.6856H59.3455C58.9065 86.6856 58.4855 86.86 58.1751 87.1704C57.8647 87.4808 57.6903 87.9018 57.6903 88.3408C57.6903 88.7798 57.8647 89.2009 58.1751 89.5113C58.4855 89.8217 58.9065 89.9961 59.3455 89.9961H62.6561C62.9974 89.9954 63.3301 89.8889 63.6084 89.6913C63.8867 89.4937 64.0968 89.2146 64.21 88.8926H69.8288C71.4379 88.8908 72.9806 88.2507 74.1184 87.1129C75.2563 85.9751 75.8963 84.4324 75.8981 82.8233V80.8622C76.2328 80.6701 76.511 80.3933 76.7047 80.0595C76.8984 79.7258 77.0008 79.3469 77.0016 78.9611V74.547C77.0008 74.16 76.8977 73.7799 76.7028 73.4455C76.5079 73.1111 76.2281 72.834 75.8918 72.6425Z" fill="white"/>
<path id="Vector_3" d="M68.1719 80.619V72.8945C68.1725 72.3094 68.4052 71.7484 68.819 71.3346C69.2327 70.9208 69.7937 70.6881 70.3789 70.6875H71.4824C72.0675 70.6881 72.6285 70.9208 73.0423 71.3346C73.4561 71.7484 73.6888 72.3094 73.6894 72.8945V80.619C73.6888 81.2042 73.4561 81.7652 73.0423 82.1789C72.6285 82.5927 72.0675 82.8254 71.4824 82.826H70.3789C69.7937 82.8254 69.2327 82.5927 68.819 82.1789C68.4052 81.7652 68.1725 81.2042 68.1719 80.619Z" fill="white"/>
<path id="Vector_4" d="M51.623 70.6875H50.5195C49.9344 70.6881 49.3734 70.9208 48.9596 71.3346C48.5458 71.7484 48.3131 72.3094 48.3125 72.8945V80.619C48.3131 81.2042 48.5458 81.7652 48.9596 82.1789C49.3734 82.5927 49.9344 82.8254 50.5195 82.826H51.623C52.2082 82.8254 52.7692 82.5927 53.1829 82.1789C53.5967 81.7652 53.8294 81.2042 53.83 80.619V72.8945C53.8294 72.3094 53.5967 71.7484 53.1829 71.3346C52.7692 70.9208 52.2082 70.6881 51.623 70.6875Z" fill="white"/>
</g>
</g>
</g>
<defs>
<linearGradient id="paint0_linear_2345_25171" x1="90.6731" y1="0.364141" x2="116.72" y2="140.983" gradientUnits="userSpaceOnUse">
<stop stop-color="#782EF1"/>
<stop offset="0.819665" stop-color="#3230B3"/>
</linearGradient>
<linearGradient id="paint1_linear_2345_25171" x1="61.5" y1="0" x2="61.5" y2="153" gradientUnits="userSpaceOnUse">
<stop stop-color="#7B44E7"/>
<stop offset="1" stop-color="white" stop-opacity="0"/>
</linearGradient>
</defs>
</svg>
