<svg width="24" height="24" viewBox="0 0 24 24" fill="none" xmlns="http://www.w3.org/2000/svg">
<circle cx="12" cy="12" r="12" fill="url(#paint0_linear_2554_41420)"/>
<path fill-rule="evenodd" clip-rule="evenodd" d="M16.2 6C16.6774 6 17.1352 6.18964 17.4728 6.52721C17.8104 6.86477 18 7.32261 18 7.8V13.8C18 14.2774 17.8104 14.7352 17.4728 15.0728C17.1352 15.4104 16.6774 15.6 16.2 15.6H9.1998L7.2 17.1C6.7056 17.4708 6 17.118 6 16.5V7.8C6 7.32261 6.18964 6.86477 6.52721 6.52721C6.86477 6.18964 7.32261 6 7.8 6H16.2ZM14.4 9H9.6C9.44707 9.00017 9.29998 9.05873 9.18878 9.16371C9.07758 9.26869 9.01066 9.41217 9.0017 9.56484C8.99273 9.7175 9.0424 9.86783 9.14056 9.9851C9.23871 10.1024 9.37794 10.1777 9.5298 10.1958L9.6 10.2H14.4C14.5529 10.1998 14.7 10.1413 14.8112 10.0363C14.9224 9.93131 14.9893 9.78783 14.9983 9.63516C15.0073 9.4825 14.9576 9.33217 14.8594 9.2149C14.7613 9.09763 14.6221 9.02226 14.4702 9.0042L14.4 9Z" fill="white" stroke="white"/>
<path d="M8 9.5H15" stroke="#7A48E5" stroke-linecap="round"/>
<path d="M8 12H13" stroke="#7A48E5" stroke-linecap="round"/>
<defs>
<linearGradient id="paint0_linear_2554_41420" x1="-7.71135e-07" y1="-2" x2="31" y2="27.5" gradientUnits="userSpaceOnUse">
<stop stop-color="#9154F4"/>
<stop offset="1" stop-color="#4C2EC7"/>
</linearGradient>
</defs>
</svg>
