<svg width="24" height="24" viewBox="0 0 24 24" fill="none" xmlns="http://www.w3.org/2000/svg">
<circle cx="12" cy="12" r="11.6667" stroke="#B7B3E7" stroke-width="0.666667"/>
<path fill-rule="evenodd" clip-rule="evenodd" d="M16.2 7C16.6774 7 17.1352 7.18964 17.4728 7.52721C17.8104 7.86477 18 8.32261 18 8.8V14.8C18 15.2774 17.8104 15.7352 17.4728 16.0728C17.1352 16.4104 16.6774 16.6 16.2 16.6H9.1998L7.2 18.1C6.7056 18.4708 6 18.118 6 17.5V8.8C6 8.32261 6.18964 7.86477 6.52721 7.52721C6.86477 7.18964 7.32261 7 7.8 7H16.2ZM14.4 10H9.6C9.44707 10.0002 9.29998 10.0587 9.18878 10.1637C9.07758 10.2687 9.01066 10.4122 9.0017 10.5648C8.99273 10.7175 9.0424 10.8678 9.14056 10.9851C9.23871 11.1024 9.37794 11.1777 9.5298 11.1958L9.6 11.2H14.4C14.5529 11.1998 14.7 11.1413 14.8112 11.0363C14.9224 10.9313 14.9893 10.7878 14.9983 10.6352C15.0073 10.4825 14.9576 10.3322 14.8594 10.2149C14.7613 10.0976 14.6221 10.0223 14.4702 10.0042L14.4 10Z" fill="#7C76C9" stroke="#7C76C9"/>
<path d="M8 10.5H15" stroke="white" stroke-linecap="round"/>
<path d="M8 13H13" stroke="white" stroke-linecap="round"/>
</svg>
