<svg width="32" height="24" viewBox="0 0 32 24" fill="none" xmlns="http://www.w3.org/2000/svg">
<g id="Group 212843">
<g id="Group 212842">
<g id="Rectangle 5203">
<rect x="0.5" width="30.831" height="23.1232" rx="4.40443" fill="#D9D9D9"/>
<rect x="0.5" width="30.831" height="23.1232" rx="4.40443" fill="url(#paint0_linear_2193_2761)"/>
</g>
<g id="Rectangle 5204">
<rect x="3.80469" y="12.1094" width="6.60664" height="2.20221" rx="1.10111" fill="white"/>
<rect x="3.80469" y="12.1094" width="6.60664" height="2.20221" rx="1.10111" fill="#8FDEFF"/>
</g>
<g id="Rectangle 5205">
<rect x="3.80469" y="16.5156" width="12.1122" height="2.20221" rx="1.10111" fill="white"/>
<rect x="3.80469" y="16.5156" width="12.1122" height="2.20221" rx="1.10111" fill="#8FDEFF"/>
</g>
</g>
<path id="Vector" d="M27.8244 7.64438L24.0255 2.21907C23.9916 2.17068 23.9468 2.13124 23.895 2.10402C23.8432 2.07679 23.7858 2.06256 23.7276 2.0625H23.7267C23.6682 2.06262 23.6107 2.077 23.5587 2.10444C23.5068 2.13188 23.462 2.17159 23.4281 2.22026L19.6537 7.64557C19.6147 7.70166 19.5915 7.76765 19.5868 7.8363C19.5821 7.90494 19.596 7.97358 19.627 8.03468C19.6578 8.09587 19.7046 8.14717 19.7621 8.18294C19.8196 8.21872 19.8857 8.23758 19.953 8.23744H21.7294L21.7292 13.1102C21.7292 13.1594 21.7387 13.2082 21.7571 13.2536C21.7755 13.2991 21.8026 13.3404 21.8366 13.3752C21.8707 13.41 21.9111 13.4376 21.9557 13.4564C22.0002 13.4752 22.0479 13.4849 22.0961 13.4849L25.3826 13.4847C25.4308 13.4847 25.4785 13.4751 25.523 13.4562C25.5676 13.4374 25.608 13.4098 25.6421 13.3749C25.6762 13.3401 25.7032 13.2988 25.7216 13.2533C25.74 13.2078 25.7495 13.159 25.7495 13.1098V8.23759H27.5264C27.6634 8.23759 27.7892 8.15863 27.8525 8.03394C27.8834 7.97265 27.8971 7.90385 27.8921 7.83511C27.8872 7.76637 27.8637 7.70037 27.8244 7.64438Z" fill="#8FDEFF"/>
</g>
<defs>
<linearGradient id="paint0_linear_2193_2761" x1="15.9155" y1="0" x2="15.9155" y2="23.1232" gradientUnits="userSpaceOnUse">
<stop stop-color="#3EC5FF"/>
<stop offset="1" stop-color="#0A98D5"/>
</linearGradient>
</defs>
</svg>
